<svg width="50" height="50" fill="none" xmlns="http://www.w3.org/2000/svg">
  <path fill-rule="evenodd" clip-rule="evenodd" d="M9.5858 35.7487c-1.1716 1.1716-1.1716 3.0711 0 4.2427l.7071.7071c1.1715 1.1716 3.071 1.1716 4.2426 0l10.6066-10.6066 10.6066 10.6066c1.1716 1.1716 3.0711 1.1716 4.2427 0l.7071-.7071c1.1716-1.1716 1.1716-3.0711 0-4.2426L30.0919 25.1421l11.3137-11.3137c1.1715-1.1715 1.1715-3.071 0-4.2426l-.7072-.7071c-1.1715-1.1716-3.071-1.1716-4.2426 0L25.1421 20.1924 13.8284 8.8787c-1.1715-1.1716-3.071-1.1716-4.2426 0l-.7071.7071c-1.1716 1.1716-1.1716 3.0711 0 4.2427l11.3137 11.3136L9.5858 35.7487Z" fill="#102746"/>
</svg>
